# xmcd
#
# Track frame offsets:
# 150
# 11447
# 18647
# 30571
# 45345
# 59986
# 61779
# 73778
# 86500
# 106718
# 122617
#
# Disc length: 1981 seconds
#
#
# Revision: 0
# Processed by: cddbd v1.4PL0 Copyright (c) Steve Scherf et al.
# Submitted via: FreeRIP 2.40 
#
DISCID=8807bb0b
DTITLE=Michael Nesmith - Magnetic South
DYEAR=1900
DGENRE=Country
TTITLE0=Calico Girlfriend
TTITLE1=Nine Times Blue
TTITLE2=Little Red Rider
TTITLE3=The Crippled Lion
TTITLE4=Joanne
TTITLE5=First National Rag
TTITLE6=Mama Nantucket
TTITLE7=The Keys To The Car
TTITLE8=Hollywood
TTITLE9=One Rose
TTITLE10=Beyond The Blue Horizon
EXTD=
EXTT0=
EXTT1=
EXTT2=
EXTT3=
EXTT4=
EXTT5=
EXTT6=
EXTT7=
EXTT8=
EXTT9=
EXTT10=
PLAYORDER=
